<?xml version="1.0" encoding="UTF-8"?>
<svg width="1024" height="1024" viewBox="0 0 1024 1024" fill="none" xmlns="http://www.w3.org/2000/svg" role="img" aria-label="Generic TPMS sensor">
  <defs>
    <radialGradient id="gChrome" cx="35%" cy="30%" r="80%">
      <stop offset="0%" stop-color="#FFFFFF" stop-opacity="0.98"/>
      <stop offset="22%" stop-color="#E9EEF3" stop-opacity="0.98"/>
      <stop offset="55%" stop-color="#B9C3CD" stop-opacity="0.98"/>
      <stop offset="78%" stop-color="#7A8793" stop-opacity="0.98"/>
      <stop offset="100%" stop-color="#55616B" stop-opacity="0.98"/>
    </radialGradient>
    <linearGradient id="gDark" x1="0" y1="0" x2="1" y2="1">
      <stop offset="0%" stop-color="#1A1F24"/>
      <stop offset="100%" stop-color="#0B0E11"/>
    </linearGradient>
    <linearGradient id="gPlastic" x1="0" y1="0" x2="0" y2="1">
      <stop offset="0%" stop-color="#2A2F35"/>
      <stop offset="35%" stop-color="#1B2026"/>
      <stop offset="100%" stop-color="#0F1318"/>
    </linearGradient>
    <linearGradient id="gStem" x1="0" y1="0" x2="0" y2="1">
      <stop offset="0%" stop-color="#F6F8FB"/>
      <stop offset="18%" stop-color="#D8DEE6"/>
      <stop offset="52%" stop-color="#9EABB7"/>
      <stop offset="100%" stop-color="#6B7883"/>
    </linearGradient>
    <filter id="shadow" x="-20%" y="-20%" width="140%" height="140%" color-interpolation-filters="sRGB">
      <feDropShadow dx="0" dy="18" stdDeviation="18" flood-color="#000000" flood-opacity="0.35"/>
    </filter>
    <filter id="soft" x="-20%" y="-20%" width="140%" height="140%" color-interpolation-filters="sRGB">
      <feGaussianBlur stdDeviation="0.6"/>
    </filter>
  </defs>

  <!-- Transparent background intentionally left blank -->

  <!-- Group with subtle shadow to feel more photo-like -->
  <g filter="url(#shadow)">
    <!-- Valve stem -->
    <g transform="translate(620 260) rotate(18)">
      <rect x="-26" y="0" width="52" height="420" rx="22" fill="url(#gStem)"/>
      <rect x="-30" y="310" width="60" height="78" rx="20" fill="url(#gChrome)" opacity="0.92"/>
      <rect x="-23" y="330" width="46" height="12" rx="6" fill="#FDFEFF" opacity="0.55" filter="url(#soft)"/>
      <rect x="-18" y="352" width="36" height="10" rx="5" fill="#0B0E11" opacity="0.35"/>
      <rect x="-14" y="372" width="28" height="9" rx="4.5" fill="#0B0E11" opacity="0.25"/>
    </g>

    <!-- Sensor body (plastic housing) -->
    <g transform="translate(290 430) rotate(-10)">
      <!-- main body -->
      <path d="M110 110C110 62.7 148.7 24 196 24H510C591.6 24 658 90.4 658 172V344C658 411.3 603.3 466 536 466H240C162.1 466 99 402.9 99 325V121C99 115.5 103.5 111 109 111H110Z" fill="url(#gPlastic)"/>

      <!-- highlight rim -->
      <path d="M196 36H510C585 36 646 97 646 172V344C646 404.6 596.6 454 536 454H240C168.8 454 111 396.2 111 325V132C111 78.5 154.5 36 196 36Z" fill="none" stroke="#FFFFFF" stroke-opacity="0.14" stroke-width="8"/>

      <!-- corner gloss -->
      <path d="M150 118C170 78 210 56 265 56H448C465 56 478 69 478 86C478 118 430 145 360 160C290 175 205 174 160 156C145 150 141 132 150 118Z" fill="#FFFFFF" opacity="0.10" filter="url(#soft)"/>

      <!-- badge area -->
      <rect x="360" y="278" width="210" height="110" rx="18" fill="url(#gDark)" opacity="0.95"/>
      <rect x="378" y="296" width="174" height="18" rx="9" fill="#FFFFFF" opacity="0.08"/>
      <rect x="378" y="328" width="128" height="14" rx="7" fill="#FFFFFF" opacity="0.06"/>
      <rect x="378" y="354" width="150" height="14" rx="7" fill="#FFFFFF" opacity="0.05"/>

      <!-- screw boss -->
      <circle cx="174" cy="338" r="46" fill="#0E1217"/>
      <circle cx="174" cy="338" r="36" fill="#1A2027"/>
      <circle cx="174" cy="338" r="26" fill="#0B0E11"/>
      <circle cx="174" cy="338" r="6" fill="#6C7782" opacity="0.7"/>
    </g>

    <!-- Metal bracket / clamp (chrome) -->
    <g transform="translate(420 590) rotate(-10)">
      <path d="M30 70C30 47.9 47.9 30 70 30H340C370.9 30 396 55.1 396 86V130C396 156.5 374.5 178 348 178H88C55.4 178 29 151.6 29 119V70H30Z" fill="url(#gChrome)" opacity="0.98"/>
      <path d="M70 42H340C364.3 42 384 61.7 384 86V130C384 149.8 367.8 166 348 166H88C62 166 41 145 41 119V70C41 54.5 54.5 42 70 42Z" fill="none" stroke="#FFFFFF" stroke-opacity="0.22" stroke-width="6"/>
      <rect x="68" y="82" width="270" height="14" rx="7" fill="#0B0E11" opacity="0.16"/>
      <rect x="68" y="110" width="210" height="12" rx="6" fill="#0B0E11" opacity="0.10"/>
    </g>
  </g>
</svg>
